<svg width="1000pt" height="181pt" viewBox="0 0 1000 181" version="1.1" xmlns="http://www.w3.org/2000/svg">
<g id="#01bfa5ff">
<path fill="#01bfa5" opacity="1.00" d=" M 838.57 10.65 C 852.69 1.43 870.80 -1.20 887.02 3.33 C 902.72 7.61 916.45 18.67 923.83 33.19 C 932.84 50.42 932.03 72.26 921.80 88.80 C 917.36 96.43 910.58 102.20 904.40 108.35 C 893.22 119.20 882.06 130.05 870.96 140.98 C 863.31 133.45 855.63 125.94 847.86 118.52 C 860.76 105.20 874.05 92.25 887.36 79.34 C 892.31 74.68 895.21 67.87 894.68 61.04 C 894.33 49.67 884.33 39.81 873.05 39.20 C 863.42 38.18 853.54 43.74 849.50 52.54 C 845.11 61.38 847.43 72.75 854.69 79.36 C 859.76 84.27 864.78 89.24 869.91 94.10 C 862.17 101.83 854.44 109.57 846.69 117.30 C 838.54 108.87 829.22 101.46 822.20 92.00 C 813.24 79.37 809.67 62.97 812.93 47.79 C 815.96 32.60 825.53 18.96 838.57 10.65 Z" />
<path fill="#01bfa5" opacity="1.00" d=" M 916.03 18.97 C 925.01 12.99 933.92 6.89 942.88 0.88 C 955.66 13.61 963.50 31.03 964.24 49.08 C 966.28 71.59 957.39 94.57 941.18 110.23 C 924.33 126.86 907.46 143.45 890.44 159.90 C 884.31 153.88 878.19 147.84 872.01 141.87 C 885.62 128.54 899.42 115.39 913.00 102.01 C 923.38 92.51 929.84 79.00 931.46 65.08 C 933.41 48.40 927.14 31.37 916.03 18.97 Z" />
<path fill="#01bfa5" opacity="1.00" d=" M 14.54 27.48 C 25.60 12.72 43.54 3.36 61.99 2.82 C 74.86 2.40 87.73 6.47 98.32 13.74 C 112.55 23.40 122.42 39.17 125.06 56.15 C 126.97 68.20 125.05 80.74 119.79 91.74 C 114.13 104.28 103.78 113.67 94.41 123.40 C 84.12 133.99 73.82 144.58 63.24 154.87 C 56.13 147.46 49.01 140.05 41.57 132.98 C 55.46 118.39 70.04 104.46 83.69 89.65 C 87.78 85.48 91.34 80.57 93.04 74.92 C 96.96 63.35 93.10 49.72 83.86 41.78 C 73.44 32.29 56.53 31.76 45.35 40.23 C 32.23 49.65 28.78 69.61 37.38 83.11 C 44.79 91.63 52.93 99.52 60.27 108.10 C 46.37 108.32 32.45 108.02 18.55 108.25 C 8.64 99.59 3.64 86.57 1.86 73.80 C -0.09 57.48 4.44 40.48 14.54 27.48 Z" />
<path fill="#01bfa5" opacity="1.00" d=" M 370.44 15.31 C 381.51 7.22 395.21 2.44 408.99 2.86 C 428.41 3.21 447.37 13.41 458.36 29.43 C 464.10 37.54 467.61 47.09 469.11 56.88 C 471.18 72.91 466.56 89.65 456.75 102.48 C 446.11 116.32 429.72 127.02 411.86 127.30 C 401.10 117.44 390.85 107.05 380.12 97.16 C 390.45 96.91 400.77 96.39 411.09 95.81 C 418.19 96.24 424.37 91.73 429.18 86.98 C 438.11 78.32 440.80 64.14 435.95 52.73 C 430.65 39.31 414.94 31.57 401.02 34.89 C 389.83 37.10 380.25 46.03 377.58 57.17 C 376.01 61.93 376.94 67.01 375.94 71.87 C 374.22 89.64 364.46 106.48 349.86 116.77 C 338.68 124.77 324.76 129.10 310.99 128.37 C 294.67 127.51 278.84 119.91 267.90 107.77 C 265.15 109.30 263.26 111.91 260.76 113.77 C 252.13 121.17 241.36 125.89 230.18 127.76 C 209.50 131.06 187.83 122.51 174.05 106.90 C 171.43 108.24 169.74 110.70 167.83 112.83 C 154.44 127.09 140.59 140.91 126.87 154.85 C 119.53 147.58 112.29 140.21 104.96 132.93 C 111.92 125.94 118.90 118.97 125.65 111.77 C 133.70 103.46 142.00 95.39 149.72 86.77 C 154.55 80.99 157.83 73.69 157.76 66.06 C 157.57 44.98 158.29 23.93 158.18 2.85 C 168.59 2.74 179.00 2.89 189.41 2.78 C 189.90 12.53 189.01 22.32 190.07 32.04 C 190.20 43.37 190.14 54.70 190.20 66.02 C 190.09 75.28 194.38 84.52 201.65 90.28 C 209.23 96.39 219.89 98.94 229.27 95.97 C 241.89 92.72 252.18 80.28 251.35 67.02 C 251.42 45.75 251.23 24.47 251.20 3.19 C 261.59 3.26 271.98 2.74 282.37 2.80 C 282.60 9.85 282.26 16.90 282.64 23.95 C 283.21 38.28 282.29 52.66 283.64 66.96 C 282.56 82.94 297.36 96.86 312.93 97.21 C 325.79 97.68 338.41 89.32 342.77 77.19 C 345.79 69.77 344.09 61.53 346.38 53.94 C 349.30 38.70 357.83 24.46 370.44 15.31 Z" />
<path fill="#01bfa5" opacity="1.00" d=" M 494.10 27.98 C 505.56 12.41 524.63 2.65 544.00 2.80 C 553.88 2.76 563.58 5.59 572.32 10.09 C 588.67 18.77 600.82 34.99 604.42 53.16 C 607.38 66.21 605.24 80.05 599.66 92.12 C 612.06 101.81 631.57 99.87 641.94 88.07 C 647.34 82.11 650.02 73.94 649.77 65.95 C 650.77 58.35 650.26 50.66 650.43 43.01 C 650.40 29.61 650.82 16.22 650.74 2.82 C 661.25 2.79 671.76 2.81 682.28 2.81 C 682.21 24.55 682.22 46.30 681.65 68.04 C 680.64 83.47 674.90 98.88 664.05 110.09 C 653.44 121.42 638.40 128.18 623.04 129.61 C 608.09 130.69 592.93 126.10 580.94 117.15 C 576.99 120.12 573.99 124.08 570.48 127.51 C 561.37 136.64 552.36 145.87 543.14 154.89 C 536.30 147.22 528.73 140.22 521.52 132.89 C 534.20 120.11 546.77 107.21 559.38 94.35 C 563.12 89.79 567.90 86.00 570.55 80.61 C 574.31 73.80 575.43 65.64 573.58 58.08 C 571.06 46.74 561.55 37.16 550.09 34.94 C 536.45 31.59 521.25 39.35 515.65 52.16 C 511.93 60.28 511.82 69.94 514.80 78.30 C 516.52 83.40 520.82 86.86 524.32 90.72 C 529.55 96.73 535.27 102.28 540.65 108.15 C 526.59 108.26 512.53 108.04 498.47 108.26 C 488.63 99.63 483.56 86.69 481.95 73.94 C 479.66 57.82 484.36 40.96 494.10 27.98 Z" />
<path fill="#01bfa5" opacity="1.00" d=" M 957.86 18.99 C 965.14 13.35 972.31 7.56 979.68 2.05 C 988.93 13.87 995.36 27.99 997.53 42.88 C 1000.98 64.64 995.49 87.64 982.63 105.53 C 976.94 113.75 969.38 120.35 962.37 127.39 C 952.80 136.85 943.14 146.22 933.65 155.77 C 927.54 149.78 921.56 143.66 915.46 137.66 C 923.89 129.37 932.38 121.14 940.79 112.82 C 946.25 107.55 951.15 101.67 955.00 95.12 C 968.71 72.41 969.86 42.66 957.86 18.99 Z" />
<path fill="#01bfa5" opacity="1.00" d=" M 914.28 138.76 C 920.38 144.78 926.40 150.88 932.49 156.92 C 924.92 164.20 917.52 171.66 910.04 179.03 C 903.87 173.01 897.76 166.93 891.49 161.01 C 899.15 153.66 906.73 146.23 914.28 138.76 Z" />
<path fill="#01bfa5" opacity="1.00" d=" M 183.59 159.00 C 183.47 148.54 193.57 139.37 203.95 140.45 C 211.92 141.06 218.74 147.23 220.81 154.85 C 221.21 154.68 222.02 154.33 222.43 154.16 C 224.59 147.15 230.71 141.59 238.03 140.55 C 248.84 138.78 259.43 148.16 259.55 159.00 C 259.65 169.62 249.56 179.17 238.93 178.14 C 231.38 177.26 224.97 171.66 222.42 164.60 C 222.00 164.46 221.14 164.17 220.72 164.03 C 218.49 171.16 212.18 176.91 204.77 178.08 C 193.95 179.56 183.26 169.91 183.59 159.00 Z" />
<path fill="#01bfa5" opacity="1.00" d=" M 619.11 140.99 C 628.61 138.24 639.17 144.64 641.85 154.00 C 645.57 165.04 636.30 177.41 624.99 178.20 C 614.92 178.82 605.26 170.19 605.04 160.04 C 604.44 151.37 610.91 143.28 619.11 140.99 Z" />
</g>
</svg>